<?xml version="1.0" encoding="UTF-8" standalone="no"?>
<!-- Created with Inkscape (http://www.inkscape.org/) -->

<svg
   width="164.55333mm"
   height="97.493858mm"
   viewBox="0 0 164.55333 97.493858"
   version="1.1"
   id="svg1"
   inkscape:version="1.3 (1:1.3+202307231459+0e150ed6c4)"
   sodipodi:docname="fig_1a_corr_suggstd.svg"
   xmlns:inkscape="http://www.inkscape.org/namespaces/inkscape"
   xmlns:sodipodi="http://sodipodi.sourceforge.net/DTD/sodipodi-0.dtd"
   xmlns:xlink="http://www.w3.org/1999/xlink"
   xmlns="http://www.w3.org/2000/svg"
   xmlns:svg="http://www.w3.org/2000/svg">
  <sodipodi:namedview
     id="namedview1"
     pagecolor="#ffffff"
     bordercolor="#666666"
     borderopacity="1.0"
     inkscape:showpageshadow="2"
     inkscape:pageopacity="0.0"
     inkscape:pagecheckerboard="0"
     inkscape:deskcolor="#d1d1d1"
     inkscape:document-units="mm"
     inkscape:zoom="1"
     inkscape:cx="356"
     inkscape:cy="144"
     inkscape:window-width="1850"
     inkscape:window-height="1016"
     inkscape:window-x="0"
     inkscape:window-y="0"
     inkscape:window-maximized="1"
     inkscape:current-layer="layer1" />
  <defs
     id="defs1">
    <linearGradient
       id="linearGradient11"
       inkscape:collect="always">
      <stop
         style="stop-color:#fde725;stop-opacity:1;"
         offset="0"
         id="stop9" />
      <stop
         style="stop-color:#fde725;stop-opacity:0;"
         offset="0.45534766"
         id="stop10" />
      <stop
         style="stop-color:#450156;stop-opacity:0;"
         offset="0.55138081"
         id="stop12" />
      <stop
         style="stop-color:#440154;stop-opacity:1;"
         offset="0.99183625"
         id="stop11" />
    </linearGradient>
    <linearGradient
       inkscape:collect="always"
       xlink:href="#linearGradient11"
       id="linearGradient8"
       gradientUnits="userSpaceOnUse"
       gradientTransform="matrix(3.8810266,0,0,1,-444.10393,-243.76134)"
       x1="125.3625"
       y1="70.310699"
       x2="140.94612"
       y2="70.233292" />
  </defs>
  <g
     inkscape:label="Layer 1"
     inkscape:groupmode="layer"
     id="layer1"
     transform="translate(-10.812148,-12.170831)">
    <path
       id="rect1"
       style="fill:none;stroke:#000000;stroke-width:0.264583"
       d="M 19.206528,25.910154 H 105.09926 V 109.5324 Z"
       sodipodi:nodetypes="cccc" />
    <text
       xml:space="preserve"
       style="font-size:5.29167px;line-height:1.25;font-family:sans-serif;letter-spacing:0px;word-spacing:0px;stroke-width:0.264583"
       x="32.83839"
       y="19.549202"
       id="text1"><tspan
         sodipodi:role="line"
         id="tspan1"
         style="stroke-width:0.264583"
         x="32.83839"
         y="19.549202" /></text>
    <path
       d="m 20.639225,22.154396 v -1.751832 h 0.475424 v 1.733745 q 0,0.410828 0.160197,0.617534 0.160197,0.204122 0.480591,0.204122 0.384989,0 0.607198,-0.245463 0.224793,-0.245463 0.224793,-0.66921 v -1.640728 h 0.475423 v 2.893882 h -0.475423 v -0.444418 q -0.173116,0.26355 -0.403077,0.392741 -0.227376,0.126608 -0.529683,0.126608 -0.498678,0 -0.757061,-0.310059 -0.258382,-0.310059 -0.258382,-0.906922 z m 1.19631,-1.821595 z m 2.364198,2.524395 h 0.852662 v -2.942975 l -0.927592,0.186036 v -0.475424 l 0.922424,-0.186035 h 0.521933 v 3.418398 h 0.852661 v 0.43925 h -2.222088 z m 4.842085,-0.7028 v -1.751832 h 0.475423 v 1.733745 q 0,0.410828 0.160197,0.617534 0.160197,0.204122 0.480591,0.204122 0.38499,0 0.607199,-0.245463 0.224792,-0.245463 0.224792,-0.66921 v -1.640728 h 0.475424 v 2.893882 H 30.99002 v -0.444418 q -0.173116,0.26355 -0.403076,0.392741 -0.227376,0.126608 -0.529684,0.126608 -0.498678,0 -0.75706,-0.310059 -0.258382,-0.310059 -0.258382,-0.906922 z m 1.19631,-1.821595 z m 2.72335,2.524395 h 1.821595 v 0.43925 h -2.449464 v -0.43925 q 0.297139,-0.307475 0.808736,-0.82424 0.514181,-0.519348 0.645956,-0.66921 0.250631,-0.281637 0.348816,-0.475423 0.100769,-0.196371 0.100769,-0.38499 0,-0.307475 -0.217041,-0.501262 -0.214457,-0.193786 -0.560689,-0.193786 -0.245464,0 -0.519349,0.08527 -0.271301,0.08527 -0.58136,0.258382 v -0.5271 q 0.315226,-0.126607 0.589112,-0.191203 0.273885,-0.0646 0.501261,-0.0646 0.599447,0 0.956015,0.299723 0.356568,0.299724 0.356568,0.800985 0,0.237712 -0.09043,0.452169 -0.08785,0.211874 -0.322978,0.501262 -0.0646,0.07493 -0.410828,0.434082 -0.346232,0.356568 -0.976685,0.99994 z m 4.482932,-0.7028 v -1.751832 h 0.475424 v 1.733745 q 0,0.410828 0.160197,0.617534 0.160197,0.204122 0.480591,0.204122 0.38499,0 0.607199,-0.245463 0.224792,-0.245463 0.224792,-0.66921 v -1.640728 h 0.475424 v 2.893882 h -0.475424 v -0.444418 q -0.173116,0.26355 -0.403076,0.392741 -0.227377,0.126608 -0.529684,0.126608 -0.498678,0 -0.75706,-0.310059 -0.258383,-0.310059 -0.258383,-0.906922 z m 1.196311,-1.821595 z m 3.855065,0.883667 q 0.374654,0.0801 0.583944,0.333313 0.211873,0.253215 0.211873,0.625286 0,0.571025 -0.392741,0.883667 -0.392741,0.312643 -1.116211,0.312643 -0.24288,0 -0.501262,-0.04909 -0.255798,-0.04651 -0.529684,-0.14211 v -0.503846 q 0.217041,0.126608 0.475424,0.191203 0.258382,0.0646 0.540019,0.0646 0.490926,0 0.746725,-0.193787 0.258382,-0.193787 0.258382,-0.563273 0,-0.341065 -0.240296,-0.532268 -0.237711,-0.193787 -0.664042,-0.193787 h -0.449585 v -0.428914 h 0.470255 q 0.38499,0 0.589112,-0.152446 0.204122,-0.155029 0.204122,-0.444418 0,-0.297139 -0.211873,-0.454752 -0.20929,-0.160197 -0.602031,-0.160197 -0.214457,0 -0.459921,0.04651 -0.245463,0.04651 -0.540019,0.144694 v -0.465088 q 0.29714,-0.08268 0.555522,-0.124023 0.260966,-0.04134 0.490927,-0.04134 0.594279,0 0.940511,0.271301 0.346233,0.268718 0.346233,0.728638 0,0.320394 -0.183452,0.542603 -0.183451,0.219625 -0.521932,0.304891 z m 3.351218,0.937928 v -1.751832 h 0.475424 v 1.733745 q 0,0.410828 0.160197,0.617534 0.160197,0.204122 0.480591,0.204122 0.384989,0 0.607198,-0.245463 0.224793,-0.245463 0.224793,-0.66921 v -1.640728 h 0.475423 v 2.893882 h -0.475423 v -0.444418 q -0.173116,0.26355 -0.403077,0.392741 -0.227376,0.126608 -0.529683,0.126608 -0.498678,0 -0.757061,-0.310059 -0.258382,-0.310059 -0.258382,-0.906922 z m 1.19631,-1.821595 z m 3.707786,-0.43925 -1.31775,2.059307 h 1.31775 z m -0.136943,-0.454753 h 0.656291 v 2.51406 h 0.550354 v 0.434082 h -0.550354 v 0.909506 H 50.7511 V 22.38694 h -1.741497 v -0.503845 z m 3.751711,3.201357 h 0.545187 v 0.656291 h -0.545187 z m 1.682072,0 h 0.545186 v 0.656291 H 56.04794 Z m 1.682067,0 h 0.545187 v 0.656291 h -0.545187 z m 1.682068,0 h 0.545187 v 0.656291 h -0.545187 z"
       id="text4"
       style="font-size:5.29167px;line-height:1.25;letter-spacing:0px;word-spacing:0px;stroke-width:0.264583"
       aria-label="u1 u2 u3 u4 ...." />
    <path
       d="m 112.85563,27.225453 h 1.75183 v 0.475423 h -1.73374 q -0.41083,0 -0.61754,0.160197 -0.20412,0.160197 -0.20412,0.480591 0,0.38499 0.24547,0.607199 0.24546,0.224792 0.66921,0.224792 h 1.64072 v 0.475424 h -2.89388 v -0.475424 h 0.44442 q -0.26355,-0.173116 -0.39274,-0.403076 -0.12661,-0.227376 -0.12661,-0.529684 0,-0.498678 0.31006,-0.75706 0.31006,-0.258382 0.90692,-0.258382 z m 1.8216,1.19631 z m -2.5244,2.364198 v 0.852662 h 2.94298 l -0.18604,-0.927593 h 0.47543 l 0.18603,0.922425 v 0.521932 h -3.4184 v 0.852662 h -0.43925 v -2.222088 z m 0.7028,4.842084 h 1.75183 v 0.475424 h -1.73374 q -0.41083,0 -0.61754,0.160197 -0.20412,0.160197 -0.20412,0.480591 0,0.38499 0.24547,0.607198 0.24546,0.224793 0.66921,0.224793 h 1.64072 v 0.475423 h -2.89388 v -0.475423 h 0.44442 q -0.26355,-0.173116 -0.39274,-0.403076 -0.12661,-0.227377 -0.12661,-0.529684 0,-0.498678 0.31006,-0.75706 0.31006,-0.258383 0.90692,-0.258383 z m 1.8216,1.19631 z m -2.5244,2.72335 v 1.821596 h -0.43925 v -2.449465 h 0.43925 q 0.30748,0.29714 0.82424,0.808737 0.51935,0.514181 0.66921,0.645956 0.28164,0.250631 0.47543,0.348816 0.19637,0.100769 0.38498,0.100769 0.30748,0 0.50127,-0.217041 0.19378,-0.214458 0.19378,-0.56069 0,-0.245463 -0.0853,-0.519348 -0.0853,-0.271302 -0.25838,-0.58136 h 0.5271 q 0.12661,0.315226 0.19121,0.589111 0.0646,0.273885 0.0646,0.501262 0,0.599447 -0.29973,0.956014 -0.29972,0.356568 -0.80099,0.356568 -0.23771,0 -0.45216,-0.09043 -0.21188,-0.08785 -0.50127,-0.322978 -0.0749,-0.06459 -0.43408,-0.410828 -0.35657,-0.346232 -0.99994,-0.976685 z m 0.7028,4.482933 h 1.75183 v 0.475423 h -1.73374 q -0.41083,0 -0.61754,0.160198 -0.20412,0.160197 -0.20412,0.480591 0,0.384989 0.24547,0.607198 0.24546,0.224793 0.66921,0.224793 h 1.64072 v 0.475423 h -2.89388 v -0.475423 h 0.44442 q -0.26355,-0.173116 -0.39274,-0.403077 -0.12661,-0.227376 -0.12661,-0.529683 0,-0.498678 0.31006,-0.757061 0.31006,-0.258382 0.90692,-0.258382 z m 1.8216,1.19631 z m -0.88367,3.855065 q -0.0801,0.374655 -0.33331,0.583945 -0.25322,0.211873 -0.62529,0.211873 -0.57102,0 -0.88367,-0.392741 -0.31264,-0.392741 -0.31264,-1.116212 0,-0.242879 0.0491,-0.501261 0.0465,-0.255799 0.14211,-0.529684 h 0.50385 q -0.12661,0.217041 -0.19121,0.475423 -0.0646,0.258383 -0.0646,0.540019 0,0.490927 0.19379,0.746725 0.19379,0.258383 0.56327,0.258383 0.34107,0 0.53227,-0.240296 0.19379,-0.237712 0.19379,-0.664043 v -0.449585 h 0.42891 v 0.470256 q 0,0.38499 0.15245,0.589112 0.15503,0.204122 0.44442,0.204122 0.29714,0 0.45475,-0.211874 0.1602,-0.209289 0.1602,-0.602031 0,-0.214457 -0.0465,-0.45992 -0.0465,-0.245463 -0.1447,-0.540019 h 0.46509 q 0.0827,0.29714 0.12403,0.555522 0.0413,0.260966 0.0413,0.490926 0,0.59428 -0.2713,0.940512 -0.26872,0.346232 -0.72865,0.346232 -0.32039,0 -0.5426,-0.183451 -0.21962,-0.183452 -0.30489,-0.521933 z m -0.93793,3.351219 h 1.75183 v 0.475423 h -1.73374 q -0.41083,0 -0.61754,0.160197 -0.20412,0.160197 -0.20412,0.480591 0,0.38499 0.24547,0.607199 0.24546,0.224792 0.66921,0.224792 h 1.64072 v 0.475424 h -2.89388 v -0.475424 h 0.44442 q -0.26355,-0.173116 -0.39274,-0.403076 -0.12661,-0.227377 -0.12661,-0.529684 0,-0.498678 0.31006,-0.75706 0.31006,-0.258382 0.90692,-0.258382 z m 1.8216,1.19631 z m 0.43925,3.707785 -2.05931,-1.31775 v 1.31775 z m 0.45475,-0.136942 v 0.656291 h -2.51406 v 0.550354 h -0.43408 v -0.550354 h -0.90951 v -0.519349 h 0.90951 V 55.59583 h 0.50384 z m -3.20136,3.75171 v 0.545187 h -0.65629 v -0.545187 z m 0,1.682072 v 0.545187 h -0.65629 v -0.545187 z m 0,1.682068 v 0.545187 h -0.65629 v -0.545187 z m 0,1.682068 v 0.545186 h -0.65629 v -0.545186 z"
       id="text4-6"
       style="font-size:5.29167px;line-height:1.25;letter-spacing:0px;word-spacing:0px;stroke-width:0.264583"
       aria-label="u1 u2 u3 u4 ...." />
    <path
       d="m 20.442661,12.240592 h 0.777731 l 0.984437,2.625164 0.989604,-2.625164 h 0.777731 v 3.857648 h -0.509013 v -3.387392 l -0.994772,2.645835 h -0.524516 l -0.994772,-2.645835 v 3.387392 h -0.50643 z m 4.565616,0 h 2.439129 v 0.43925 h -1.917197 v 1.14205 h 1.837099 v 0.43925 h -1.837099 v 1.397848 h 1.963706 v 0.43925 h -2.485638 z m 6.232182,0.29714 v 0.550354 q -0.26355,-0.245463 -0.563274,-0.366903 -0.297139,-0.12144 -0.633036,-0.12144 -0.661459,0 -1.012859,0.405661 -0.3514,0.403076 -0.3514,1.167888 0,0.762227 0.3514,1.167888 0.3514,0.403076 1.012859,0.403076 0.335897,0 0.633036,-0.12144 0.299724,-0.121439 0.563274,-0.366902 V 15.8011 q -0.273886,0.186036 -0.581361,0.279053 -0.304891,0.09302 -0.645955,0.09302 -0.875916,0 -1.379762,-0.534852 -0.503845,-0.537435 -0.503845,-1.465027 0,-0.930177 0.503845,-1.465028 0.503846,-0.537435 1.379762,-0.537435 0.346232,0 0.651123,0.09302 0.307475,0.09043 0.576193,0.273886 z"
       id="text4-3"
       style="font-size:5.29167px;line-height:1.25;letter-spacing:0px;word-spacing:0px;stroke-width:0.264583"
       aria-label="MEC" />
    <path
       d="m 55.011628,12.537735 v 0.550355 q -0.26355,-0.245463 -0.563274,-0.366903 -0.297139,-0.12144 -0.633036,-0.12144 -0.661459,0 -1.012859,0.40566 -0.3514,0.403077 -0.3514,1.167888 0,0.762228 0.3514,1.167889 0.3514,0.403076 1.012859,0.403076 0.335897,0 0.633036,-0.12144 0.299724,-0.121439 0.563274,-0.366903 v 0.545187 q -0.273885,0.186035 -0.58136,0.279053 -0.304892,0.09302 -0.645956,0.09302 -0.875916,0 -1.379762,-0.534852 -0.503845,-0.537435 -0.503845,-1.465028 0,-0.930176 0.503845,-1.465027 0.503846,-0.537436 1.379762,-0.537436 0.346232,0 0.651123,0.09302 0.307475,0.09043 0.576193,0.273885 z m 2.09548,0.217042 -0.707967,1.91978 h 1.418519 z m -0.294555,-0.514181 h 0.591695 l 1.470195,3.857648 h -0.542602 l -0.3514,-0.989605 h -1.738913 l -0.3514,0.989605 h -0.550355 z m 4.252972,1.77767 q 0.374655,0.0801 0.583944,0.333313 0.211874,0.253215 0.211874,0.625285 0,0.571025 -0.392741,0.883668 -0.392741,0.312643 -1.116212,0.312643 -0.242879,0 -0.501262,-0.04909 -0.255798,-0.04651 -0.529683,-0.14211 v -0.503846 q 0.217041,0.126607 0.475423,0.191203 0.258382,0.0646 0.540019,0.0646 0.490927,0 0.746725,-0.193787 0.258382,-0.193787 0.258382,-0.563274 0,-0.341064 -0.240295,-0.532267 -0.237712,-0.193787 -0.664043,-0.193787 h -0.449585 v -0.428914 h 0.470256 q 0.384989,0 0.589111,-0.152446 0.204123,-0.155029 0.204123,-0.444418 0,-0.297139 -0.211874,-0.454753 -0.20929,-0.160197 -0.602031,-0.160197 -0.214457,0 -0.45992,0.04651 -0.245463,0.04651 -0.540019,0.144694 v -0.465088 q 0.297139,-0.08268 0.555522,-0.124023 0.260966,-0.04134 0.490926,-0.04134 0.594279,0 0.940512,0.271302 0.346232,0.268718 0.346232,0.728638 0,0.320394 -0.183451,0.542603 -0.183452,0.219625 -0.521933,0.304891 z"
       id="text4-3-3"
       style="font-size:5.29167px;line-height:1.25;letter-spacing:0px;word-spacing:0px;stroke-width:0.264583"
       aria-label="CA3" />
    <path
       d="m 86.983819,12.537735 v 0.550355 q -0.26355,-0.245463 -0.563274,-0.366903 -0.297139,-0.12144 -0.633036,-0.12144 -0.661459,0 -1.012859,0.40566 -0.3514,0.403077 -0.3514,1.167888 0,0.762228 0.3514,1.167889 0.3514,0.403076 1.012859,0.403076 0.335897,0 0.633036,-0.12144 0.299724,-0.121439 0.563274,-0.366903 v 0.545187 q -0.273886,0.186035 -0.581361,0.279053 -0.304891,0.09302 -0.645955,0.09302 -0.875916,0 -1.379762,-0.534852 -0.503845,-0.537435 -0.503845,-1.465028 0,-0.930176 0.503845,-1.465027 0.503846,-0.537436 1.379762,-0.537436 0.346232,0 0.651123,0.09302 0.307475,0.09043 0.576193,0.273885 z m 2.095484,0.217042 -0.707971,1.91978 h 1.418518 z m -0.29456,-0.514181 h 0.5917 l 1.470181,3.857648 h -0.542597 l -0.3514,-0.989605 h -1.738908 l -0.3514,0.989605 h -0.550355 z m 2.762095,3.418398 h 0.852657 v -2.942975 l -0.927584,0.186035 v -0.475423 l 0.922414,-0.186035 h 0.521927 v 3.418398 h 0.852664 v 0.43925 h -2.222078 z"
       id="text4-3-3-8"
       style="font-size:5.29167px;line-height:1.25;letter-spacing:0px;word-spacing:0px;stroke-width:0.264583"
       aria-label="CA1" />
    <path
       d="m 125.86975,27.939875 v 0.777731 l -2.62516,0.984436 2.62516,0.989605 v 0.77773 h -3.85765 v -0.509013 h 3.3874 l -2.64584,-0.994772 v -0.524516 l 2.64584,-0.994772 h -3.3874 v -0.506429 z m 0,4.565616 v 2.439129 h -0.43925 v -1.917197 h -1.14205 v 1.837098 h -0.43925 v -1.837098 h -1.39785 v 1.963706 h -0.43925 v -2.485638 z m -0.29714,6.232181 h -0.55035 q 0.24546,-0.26355 0.3669,-0.563273 0.12144,-0.29714 0.12144,-0.633037 0,-0.661459 -0.40566,-1.012859 -0.40308,-0.3514 -1.16789,-0.3514 -0.76223,0 -1.16789,0.3514 -0.40307,0.3514 -0.40307,1.012859 0,0.335897 0.12144,0.633037 0.12144,0.299723 0.3669,0.563273 h -0.54519 q -0.18603,-0.273885 -0.27905,-0.58136 -0.093,-0.304891 -0.093,-0.645956 0,-0.875916 0.53485,-1.379761 0.53744,-0.503846 1.46503,-0.503846 0.93018,0 1.46503,0.503846 0.53743,0.503845 0.53743,1.379761 0,0.346232 -0.093,0.651124 -0.0904,0.307475 -0.27388,0.576192 z"
       id="text4-3-2"
       style="font-size:5.29167px;line-height:1.25;letter-spacing:0px;word-spacing:0px;stroke-width:0.264583"
       aria-label="MEC" />
    <path
       d="m 125.57261,62.508843 h -0.55036 q 0.24547,-0.26355 0.36691,-0.563273 0.12144,-0.29714 0.12144,-0.633037 0,-0.661459 -0.40566,-1.012859 -0.40308,-0.3514 -1.16789,-0.3514 -0.76223,0 -1.16789,0.3514 -0.40308,0.3514 -0.40308,1.012859 0,0.335897 0.12144,0.633037 0.12144,0.299723 0.36691,0.563273 h -0.54519 q -0.18604,-0.273885 -0.27905,-0.58136 -0.093,-0.304891 -0.093,-0.645956 0,-0.875916 0.53485,-1.379761 0.53743,-0.503846 1.46503,-0.503846 0.93017,0 1.46502,0.503846 0.53744,0.503845 0.53744,1.379761 0,0.346233 -0.093,0.651124 -0.0904,0.307475 -0.27389,0.576192 z m -0.21704,2.095481 -1.91978,-0.707968 v 1.418519 z m 0.51418,-0.294556 v 0.591696 l -3.85765,1.470195 v -0.542603 l 0.9896,-0.3514 v -1.738913 l -0.9896,-0.3514 v -0.550354 z m -1.77767,4.252973 q -0.0801,0.374654 -0.33332,0.583944 -0.25321,0.211873 -0.62528,0.211873 -0.57103,0 -0.88367,-0.392741 -0.31264,-0.392741 -0.31264,-1.116212 0,-0.242879 0.0491,-0.501261 0.0465,-0.255799 0.14211,-0.529684 h 0.50384 q -0.1266,0.217041 -0.1912,0.475423 -0.0646,0.258383 -0.0646,0.54002 0,0.490926 0.19379,0.746724 0.19379,0.258383 0.56327,0.258383 0.34107,0 0.53227,-0.240296 0.19379,-0.237712 0.19379,-0.664042 v -0.449586 h 0.42891 v 0.470256 q 0,0.38499 0.15245,0.589112 0.15503,0.204122 0.44441,0.204122 0.29714,0 0.45476,-0.211874 0.16019,-0.209289 0.16019,-0.60203 0,-0.214458 -0.0465,-0.459921 -0.0465,-0.245463 -0.14469,-0.540019 h 0.46509 q 0.0827,0.29714 0.12402,0.555522 0.0413,0.260966 0.0413,0.490926 0,0.59428 -0.2713,0.940512 -0.26872,0.346232 -0.72864,0.346232 -0.32039,0 -0.5426,-0.183451 -0.21963,-0.183452 -0.30489,-0.521932 z"
       id="text4-3-3-6"
       style="font-size:5.29167px;line-height:1.25;letter-spacing:0px;word-spacing:0px;stroke-width:0.264583"
       aria-label="CA3" />
    <path
       d="m 125.57261,94.481038 h -0.55036 q 0.24547,-0.26355 0.36691,-0.563274 0.12144,-0.297139 0.12144,-0.633036 0,-0.661459 -0.40566,-1.012859 -0.40308,-0.3514 -1.16789,-0.3514 -0.76223,0 -1.16789,0.3514 -0.40308,0.3514 -0.40308,1.012859 0,0.335897 0.12144,0.633036 0.12144,0.299724 0.36691,0.563274 h -0.54519 q -0.18604,-0.273885 -0.27905,-0.58136 -0.093,-0.304891 -0.093,-0.645956 0,-0.875916 0.53485,-1.379762 0.53743,-0.503845 1.46503,-0.503845 0.93017,0 1.46502,0.503845 0.53744,0.503846 0.53744,1.379762 0,0.346232 -0.093,0.651123 -0.0904,0.307475 -0.27389,0.576193 z m -0.21704,2.095481 -1.91978,-0.707968 v 1.418519 z m 0.51418,-0.294556 v 0.591695 l -3.85765,1.470196 v -0.542603 l 0.9896,-0.3514 v -1.738913 l -0.9896,-0.3514 v -0.550355 z m -3.4184,2.762106 v 0.852662 h 2.94297 l -0.18603,-0.927593 h 0.47542 l 0.18604,0.922425 v 0.521937 h -3.4184 v 0.85266 h -0.43925 v -2.222091 z"
       id="text4-3-3-8-5"
       style="font-size:5.29167px;line-height:1.25;letter-spacing:0px;word-spacing:0px;stroke-width:0.264583"
       aria-label="CA1" />
    <path
       id="rect4-9-4"
       style="fill:url(#linearGradient8);stroke-width:0.521237"
       transform="rotate(90)"
       d="m 40.897511,-143.47101 h 62.014149 v 10.37407 H 40.897511 Z" />
    <path
       d="m 148.33686,43.170364 v 1.534791 h -0.478 v -3.994591 h 0.478 v 0.43925 q 0.14987,-0.258382 0.37724,-0.382405 0.22996,-0.126608 0.54777,-0.126608 0.5271,0 0.85525,0.41858 0.33073,0.418579 0.33073,1.100708 0,0.68213 -0.33073,1.100709 -0.32815,0.418579 -0.85525,0.418579 -0.31781,0 -0.54777,-0.124023 -0.22737,-0.126608 -0.37724,-0.38499 z m 1.61748,-1.010275 q 0,-0.524516 -0.21704,-0.821656 -0.21446,-0.299723 -0.5917,-0.299723 -0.37724,0 -0.59428,0.299723 -0.21446,0.29714 -0.21446,0.821656 0,0.524516 0.21446,0.82424 0.21704,0.29714 0.59428,0.29714 0.37724,0 0.5917,-0.29714 0.21704,-0.299724 0.21704,-0.82424 z m 2.40295,-1.116211 q -0.3824,0 -0.60461,0.299723 -0.22221,0.29714 -0.22221,0.816488 0,0.519349 0.21962,0.819072 0.22221,0.29714 0.6072,0.29714 0.37982,0 0.60203,-0.299724 0.22221,-0.299723 0.22221,-0.816488 0,-0.514181 -0.22221,-0.813904 -0.22221,-0.302307 -0.60203,-0.302307 z m 0,-0.403077 q 0.62012,0 0.9741,0.403077 0.35399,0.403076 0.35399,1.116211 0,0.710552 -0.35399,1.116212 -0.35398,0.403076 -0.9741,0.403076 -0.6227,0 -0.97668,-0.403076 -0.3514,-0.40566 -0.3514,-1.116212 0,-0.713135 0.3514,-1.116211 0.35398,-0.403077 0.97668,-0.403077 z m 3.961,0.15503 v 0.449585 q -0.20153,-0.103353 -0.41858,-0.15503 -0.21704,-0.05168 -0.44958,-0.05168 -0.35398,0 -0.53227,0.108521 -0.1757,0.10852 -0.1757,0.325561 0,0.165365 0.12661,0.260966 0.12661,0.09302 0.50901,0.178284 l 0.16278,0.03617 q 0.50643,0.10852 0.71831,0.307475 0.21445,0.19637 0.21445,0.550354 0,0.403076 -0.32039,0.638204 -0.31781,0.235128 -0.87592,0.235128 -0.23254,0 -0.48576,-0.04651 -0.25063,-0.04393 -0.52968,-0.134358 v -0.490927 q 0.26355,0.136943 0.51935,0.206706 0.2558,0.06718 0.50643,0.06718 0.33589,0 0.51676,-0.113689 0.18087,-0.116272 0.18087,-0.325561 0,-0.193787 -0.13177,-0.29714 -0.1292,-0.103353 -0.57103,-0.198954 l -0.16536,-0.03876 q -0.44184,-0.09302 -0.63821,-0.28422 -0.19637,-0.193787 -0.19637,-0.529684 0,-0.408244 0.28939,-0.630453 0.28939,-0.222209 0.82165,-0.222209 0.26355,0 0.4961,0.03876 0.23254,0.03876 0.42891,0.116272 z m 0.91209,-0.08527 h 0.47543 v 2.893882 h -0.47543 z m 0,-1.126546 h 0.47543 v 0.60203 h -0.47543 z m 1.94045,0.304891 v 0.821655 h 0.97927 v 0.369487 h -0.97927 v 1.570965 q 0,0.353983 0.0956,0.454753 0.0982,0.100769 0.39532,0.100769 h 0.48834 v 0.397908 h -0.48834 q -0.55035,0 -0.75964,-0.204122 -0.20929,-0.206705 -0.20929,-0.749308 V 41.080048 H 158.344 v -0.369487 h 0.34882 v -0.821655 z m 1.60456,0.821655 h 0.47542 v 2.893882 h -0.47542 z m 0,-1.126546 h 0.47542 v 0.60203 h -0.47542 z m 1.12913,1.126546 h 0.50385 l 0.90433,2.428794 0.90434,-2.428794 h 0.50385 l -1.08521,2.893882 h -0.64595 z m 5.94796,1.328086 v 0.232544 h -2.18591 q 0.031,0.490926 0.29455,0.749308 0.26614,0.255799 0.73898,0.255799 0.27388,0 0.52968,-0.06718 0.25838,-0.06718 0.5116,-0.201538 v 0.449585 q -0.2558,0.108521 -0.52452,0.165365 -0.26872,0.05684 -0.54519,0.05684 -0.69246,0 -1.09812,-0.403076 -0.40308,-0.403077 -0.40308,-1.090374 0,-0.710551 0.38241,-1.126546 0.38499,-0.41858 1.03611,-0.41858 0.58394,0 0.92243,0.377238 0.34106,0.374655 0.34106,1.020611 z m -0.47542,-0.139527 q -0.005,-0.390157 -0.21963,-0.622701 -0.21187,-0.232544 -0.56327,-0.232544 -0.39791,0 -0.63821,0.224792 -0.23771,0.224793 -0.27388,0.633037 z"
       id="text12"
       style="font-size:5.29167px;line-height:1.25;letter-spacing:0px;word-spacing:0px;stroke-width:0.264583"
       aria-label="positive" />
    <path
       d="m 150.32568,99.904993 v 1.746667 h -0.47542 v -1.731164 q 0,-0.410828 -0.1602,-0.61495 -0.1602,-0.204122 -0.48059,-0.204122 -0.38499,0 -0.6072,0.245463 -0.22221,0.245463 -0.22221,0.669213 v 1.63556 h -0.47801 v -2.893885 h 0.47801 v 0.449585 q 0.17053,-0.260966 0.40049,-0.390157 0.23255,-0.129191 0.53486,-0.129191 0.49867,0 0.75447,0.310059 0.2558,0.307475 0.2558,0.906922 z m 3.42357,0.180867 v 0.23254 h -2.18592 q 0.031,0.49093 0.29456,0.74931 0.26613,0.2558 0.73897,0.2558 0.27389,0 0.52968,-0.0672 0.25839,-0.0672 0.5116,-0.20154 v 0.44959 q -0.2558,0.10852 -0.52451,0.16536 -0.26872,0.0568 -0.54519,0.0568 -0.69247,0 -1.09813,-0.40308 -0.40307,-0.40307 -0.40307,-1.09037 0,-0.710553 0.3824,-1.126549 0.38499,-0.418579 1.03612,-0.418579 0.58394,0 0.92242,0.377238 0.34107,0.374654 0.34107,1.02061 z m -0.47543,-0.139526 q -0.005,-0.390157 -0.21962,-0.622702 -0.21188,-0.232544 -0.56328,-0.232544 -0.3979,0 -0.6382,0.224793 -0.23771,0.224793 -0.27389,0.633037 z m 3.16002,0.224796 q 0,-0.516768 -0.21446,-0.800989 -0.21187,-0.28422 -0.59686,-0.28422 -0.38241,0 -0.59687,0.28422 -0.21187,0.284221 -0.21187,0.800989 0,0.51418 0.21187,0.7984 0.21446,0.28422 0.59687,0.28422 0.38499,0 0.59686,-0.28422 0.21446,-0.28422 0.21446,-0.7984 z m 0.47542,1.12138 q 0,0.73897 -0.32814,1.09812 -0.32815,0.36174 -1.00511,0.36174 -0.25063,0 -0.47284,-0.0388 -0.22221,-0.0362 -0.4315,-0.11369 v -0.4625 q 0.20929,0.11368 0.41341,0.16794 0.20412,0.0543 0.416,0.0543 0.46767,0 0.70021,-0.24546 0.23255,-0.24288 0.23255,-0.73639 v -0.23513 q -0.14728,0.2558 -0.37724,0.38241 -0.22996,0.12661 -0.55035,0.12661 -0.53227,0 -0.85783,-0.40566 -0.32557,-0.40566 -0.32557,-1.07487 0,-0.671798 0.32557,-1.077458 0.32556,-0.40566 0.85783,-0.40566 0.32039,0 0.55035,0.126607 0.22996,0.126608 0.37724,0.382406 v -0.43925 h 0.47542 z m 2.29444,-1.09555 q -0.5762,0 -0.7984,0.13178 -0.22221,0.13177 -0.22221,0.44958 0,0.25322 0.16536,0.40308 0.16795,0.14728 0.45475,0.14728 0.39533,0 0.63304,-0.27905 0.2403,-0.28164 0.2403,-0.74673 v -0.10594 z m 0.94826,-0.19637 v 1.65107 h -0.47542 v -0.43925 q -0.16278,0.26355 -0.40566,0.39015 -0.24288,0.12403 -0.59428,0.12403 -0.44442,0 -0.70797,-0.24805 -0.26097,-0.25063 -0.26097,-0.66921 0,-0.48834 0.32556,-0.73639 0.32815,-0.248046 0.97669,-0.248046 h 0.66663 v -0.04651 q 0,-0.328145 -0.21705,-0.506429 -0.21445,-0.180868 -0.60461,-0.180868 -0.24805,0 -0.48317,0.05943 -0.23513,0.05943 -0.45217,0.178284 v -0.43925 q 0.26096,-0.100769 0.50643,-0.149862 0.24546,-0.05168 0.478,-0.05168 0.62787,0 0.93793,0.325562 0.31006,0.325561 0.31006,0.987019 z m 1.44952,-2.064471 v 0.821656 h 0.97927 v 0.369487 h -0.97927 v 1.570968 q 0,0.35398 0.0956,0.45475 0.0982,0.10077 0.39532,0.10077 h 0.48834 v 0.39791 h -0.48834 q -0.55035,0 -0.75964,-0.20412 -0.20929,-0.20671 -0.20929,-0.74931 v -1.570968 h -0.34882 v -0.369487 h 0.34882 v -0.821656 z m 1.60456,0.821656 h 0.47542 v 2.893885 h -0.47542 z m 0,-1.126547 h 0.47542 v 0.602031 h -0.47542 z m 1.12913,1.126547 h 0.50385 l 0.90433,2.428795 0.90434,-2.428795 h 0.50385 l -1.08521,2.893885 h -0.64595 z m 5.94796,1.328085 v 0.23254 h -2.18591 q 0.031,0.49093 0.29455,0.74931 0.26614,0.2558 0.73898,0.2558 0.27388,0 0.52968,-0.0672 0.25838,-0.0672 0.5116,-0.20154 v 0.44959 q -0.2558,0.10852 -0.52452,0.16536 -0.26872,0.0568 -0.54519,0.0568 -0.69246,0 -1.09812,-0.40308 -0.40308,-0.40307 -0.40308,-1.09037 0,-0.710553 0.38241,-1.126549 0.38499,-0.418579 1.03611,-0.418579 0.58395,0 0.92243,0.377238 0.34106,0.374654 0.34106,1.02061 z m -0.47542,-0.139526 q -0.005,-0.390157 -0.21963,-0.622702 -0.21187,-0.232544 -0.56327,-0.232544 -0.39791,0 -0.63821,0.224793 -0.23771,0.224793 -0.27388,0.633037 z"
       id="text12-3"
       style="font-size:5.29167px;line-height:1.25;letter-spacing:0px;word-spacing:0px;stroke-width:0.264583"
       aria-label="negative" />
    <path
       d="m 150.00267,70.823042 v 0.444418 q -0.20154,-0.111105 -0.40566,-0.165365 -0.20154,-0.05684 -0.40824,-0.05684 -0.46251,0 -0.71831,0.294556 -0.25579,0.291972 -0.25579,0.821656 0,0.529683 0.25579,0.824239 0.2558,0.291972 0.71831,0.291972 0.2067,0 0.40824,-0.05426 0.20412,-0.05684 0.40566,-0.167949 v 0.43925 q -0.19895,0.09302 -0.41341,0.139527 -0.21187,0.04651 -0.45217,0.04651 -0.65371,0 -1.0387,-0.410828 -0.38499,-0.410828 -0.38499,-1.10846 0,-0.707968 0.38758,-1.113628 0.39016,-0.40566 1.06712,-0.40566 0.21962,0 0.42891,0.04651 0.20929,0.04393 0.40566,0.134359 z m 1.9482,0.222209 q -0.3824,0 -0.60461,0.299723 -0.22221,0.29714 -0.22221,0.816489 0,0.519348 0.21963,0.819071 0.2222,0.29714 0.60719,0.29714 0.37983,0 0.60204,-0.299723 0.2222,-0.299724 0.2222,-0.816488 0,-0.514181 -0.2222,-0.813905 -0.22221,-0.302307 -0.60204,-0.302307 z m 0,-0.403076 q 0.62012,0 0.97411,0.403076 0.35398,0.403076 0.35398,1.116212 0,0.710551 -0.35398,1.116211 -0.35399,0.403077 -0.97411,0.403077 -0.6227,0 -0.97668,-0.403077 -0.3514,-0.40566 -0.3514,-1.116211 0,-0.713136 0.3514,-1.116212 0.35398,-0.403076 0.97668,-0.403076 z m 3.79306,0.51418 q -0.0801,-0.04651 -0.1757,-0.06718 -0.093,-0.02325 -0.20671,-0.02325 -0.40308,0 -0.62012,0.263549 -0.21445,0.260967 -0.21445,0.751893 v 1.524456 h -0.47801 v -2.893882 h 0.47801 v 0.449585 q 0.14986,-0.26355 0.39015,-0.390157 0.2403,-0.129191 0.58395,-0.129191 0.0491,0 0.10852,0.0078 0.0594,0.0052 0.13177,0.01809 z m 2.08256,0 q -0.0801,-0.04651 -0.1757,-0.06718 -0.093,-0.02325 -0.20671,-0.02325 -0.40307,0 -0.62011,0.263549 -0.21446,0.260967 -0.21446,0.751893 v 1.524456 h -0.47801 v -2.893882 h 0.47801 v 0.449585 q 0.14986,-0.26355 0.39016,-0.390157 0.24029,-0.129191 0.58394,-0.129191 0.0491,0 0.10852,0.0078 0.0594,0.0052 0.13177,0.01809 z m 2.85771,0.883668 v 0.232544 h -2.18592 q 0.031,0.490926 0.29456,0.749309 0.26613,0.255798 0.73897,0.255798 0.27389,0 0.52969,-0.06718 0.25838,-0.06718 0.51159,-0.201538 v 0.449585 q -0.2558,0.10852 -0.52451,0.165364 -0.26872,0.05684 -0.54519,0.05684 -0.69246,0 -1.09813,-0.403077 -0.40307,-0.403076 -0.40307,-1.090373 0,-0.710552 0.3824,-1.126547 0.38499,-0.418579 1.03612,-0.418579 0.58394,0 0.92242,0.377238 0.34107,0.374654 0.34107,1.02061 z m -0.47543,-0.139527 q -0.005,-0.390157 -0.21962,-0.622701 -0.21187,-0.232544 -0.56327,-0.232544 -0.39791,0 -0.63821,0.224793 -0.23771,0.224792 -0.27388,0.633036 z m 1.25574,-2.315105 h 0.47542 v 4.020429 h -0.47542 z m 2.78536,2.565736 q -0.57619,0 -0.7984,0.131775 -0.22221,0.131775 -0.22221,0.449585 0,0.253215 0.16537,0.403077 0.16795,0.147278 0.45475,0.147278 0.39533,0 0.63304,-0.279053 0.24029,-0.281637 0.24029,-0.746725 v -0.105937 z m 0.94827,-0.19637 v 1.651063 h -0.47543 v -0.43925 q -0.16278,0.26355 -0.40566,0.390157 -0.24288,0.124024 -0.59428,0.124024 -0.44441,0 -0.70796,-0.248047 -0.26097,-0.250631 -0.26097,-0.669211 0,-0.488342 0.32556,-0.736389 0.32815,-0.248047 0.97669,-0.248047 h 0.66662 v -0.04651 q 0,-0.328146 -0.21704,-0.506429 -0.21446,-0.180868 -0.60461,-0.180868 -0.24805,0 -0.48318,0.05943 -0.23513,0.05943 -0.45217,0.178284 v -0.43925 q 0.26097,-0.100769 0.50643,-0.149862 0.24547,-0.05168 0.47801,-0.05168 0.62787,0 0.93793,0.325561 0.31006,0.325562 0.31006,0.987021 z m 1.44952,-2.064475 v 0.821656 h 0.97927 v 0.369486 h -0.97927 v 1.570965 q 0,0.353984 0.0956,0.454753 0.0982,0.100769 0.39533,0.100769 h 0.48834 v 0.397909 h -0.48834 q -0.55036,0 -0.75965,-0.204122 -0.20929,-0.206706 -0.20929,-0.749309 v -1.570965 h -0.34881 v -0.369486 h 0.34881 v -0.821656 z m 1.60456,0.821656 h 0.47542 v 2.893882 h -0.47542 z m 0,-1.126547 h 0.47542 v 0.602031 h -0.47542 z m 2.59157,1.45986 q -0.38241,0 -0.60462,0.299723 -0.2222,0.29714 -0.2222,0.816489 0,0.519348 0.21962,0.819071 0.22221,0.29714 0.6072,0.29714 0.37982,0 0.60203,-0.299723 0.22221,-0.299724 0.22221,-0.816488 0,-0.514181 -0.22221,-0.813905 -0.22221,-0.302307 -0.60203,-0.302307 z m 0,-0.403076 q 0.62012,0 0.9741,0.403076 0.35398,0.403076 0.35398,1.116212 0,0.710551 -0.35398,1.116211 -0.35398,0.403077 -0.9741,0.403077 -0.6227,0 -0.97669,-0.403077 -0.3514,-0.40566 -0.3514,-1.116211 0,-0.713136 0.3514,-1.116212 0.35399,-0.403076 0.97669,-0.403076 z m 4.52169,1.21698 v 1.746665 h -0.47542 v -1.731162 q 0,-0.410828 -0.1602,-0.61495 -0.1602,-0.204122 -0.48059,-0.204122 -0.38499,0 -0.6072,0.245463 -0.22221,0.245464 -0.22221,0.669211 v 1.63556 h -0.47801 v -2.893882 h 0.47801 v 0.449585 q 0.17053,-0.260966 0.40049,-0.390157 0.23255,-0.129191 0.53486,-0.129191 0.49867,0 0.75447,0.310058 0.2558,0.307475 0.2558,0.906922 z"
       id="text12-3-8"
       style="font-size:5.29167px;line-height:1.25;letter-spacing:0px;word-spacing:0px;stroke-width:0.264583"
       aria-label="correlation" />
  </g>
</svg>
